HIERARCHY
ROOT hip
{
	OFFSET 0.000000 0.000000 0.000000 
	CHANNELS 6 Xposition Yposition Zposition Xrotation Zrotation Yrotation
	JOINT abdomen
	{
		OFFSET 0.000000 3.402643 0.000000 
		CHANNELS 3 Xrotation Zrotation Yrotation
		JOINT chest
		{
			OFFSET 0.000000 8.438565 -0.680529 
			CHANNELS 3 Xrotation Zrotation Yrotation
			JOINT neck
			{
				OFFSET 0.000000 10.207942 -0.272212 
				CHANNELS 3 Xrotation Zrotation Yrotation
				JOINT head
				{
					OFFSET 0.000000 3.130431 0.000000 
					CHANNELS 3 Xrotation Zrotation Yrotation
					End Site
					{
						OFFSET 0.000000 3.130435 0.000000 
					}
				}
			}
			JOINT lCollar
			{
				OFFSET 3.470700 6.669187 -0.816635 
				CHANNELS 3 Yrotation Zrotation Xrotation
				JOINT lShldr
				{
					OFFSET 3.198488 0.000000 0.000000 
					CHANNELS 3 Zrotation Yrotation Xrotation
					JOINT lForeArm
					{
						OFFSET 10.139888 0.000000 0.000000 
						CHANNELS 3 Yrotation Zrotation Xrotation
						JOINT lHand
						{
							OFFSET 8.370511 0.000000 0.000000 
							CHANNELS 3 Zrotation Yrotation Xrotation
							End Site
							{
								OFFSET 4.083176 0.000000 0.000000 
							}
						}
					}
				}
			}
			JOINT rCollar
			{
				OFFSET -3.470700 6.669187 -0.816635 
				CHANNELS 3 Yrotation Zrotation Xrotation
				JOINT rShldr
				{
					OFFSET -3.198488 0.000000 0.000000 
					CHANNELS 3 Zrotation Yrotation Xrotation
					JOINT rForeArm
					{
						OFFSET -10.139888 0.000000 0.000000 
						CHANNELS 3 Yrotation Zrotation Xrotation
						JOINT rHand
						{
							OFFSET -8.370511 0.000000 0.000000 
							CHANNELS 3 Zrotation Yrotation Xrotation
							End Site
							{
								OFFSET -4.083176 0.000000 0.000000 
							}
						}
					}
				}
			}
		}
	}
	JOINT lThigh
	{
		OFFSET 5.308129 -1.633274 1.361059 
		CHANNELS 3 Xrotation Zrotation Yrotation
		JOINT lShin
		{
			OFFSET -2.041588 -20.007561 0.000000 
			CHANNELS 3 Xrotation Zrotation Yrotation
			JOINT lFoot
			{
				OFFSET 0.000000 -19.190928 -1.224953 
				CHANNELS 3 Xrotation Yrotation Zrotation
				End Site
				{
					OFFSET 0.000000 -2.449906 4.627600 
				}
			}
		}
	}
	JOINT rThigh
	{
		OFFSET -5.308129 -1.633274 1.361059 
		CHANNELS 3 Xrotation Zrotation Yrotation
		JOINT rShin
		{
			OFFSET 2.041588 -20.007561 0.000000 
			CHANNELS 3 Xrotation Zrotation Yrotation
			JOINT rFoot
			{
				OFFSET 0.000000 -19.190928 -1.224953 
				CHANNELS 3 Xrotation Yrotation Zrotation
				End Site
				{
					OFFSET 0.000000 -2.449906 4.627600 
				}
			}
		}
	}
}
MOTION
Frames: 16
Frame Time: 0.033333
-4.182616 46.455673 74.881096 28.105469 17.490234 -16.308594 32.295631 -1.010180 -15.281321 -29.248049 9.550781 0.498047 51.553619 8.070152 2.616707 -94.306641 -18.720703 40.429688 2.000000 -2.000000 0.000000 -50.000000 -9.697266 -39.863277 -90.618446 7.023957 -11.849605 33.316010 36.387074 8.342189 -2.000000 2.000000 0.000000 71.533203 22.753904 -37.291145 136.435471 25.134178 -18.377588 5.280638 -43.143459 -115.972473 -56.620953 -3.446929 12.240365 52.690338 -3.962658 -4.570719 -23.506727 6.999049 5.078090 -70.268524 -14.960690 3.592669 66.979958 1.660146 4.937269 2.954614 -13.512847 2.434910 
-4.413666 47.380905 75.560844 26.679689 16.601564 -16.784319 31.583385 -1.174492 -15.000134 -29.248049 9.550781 0.498047 51.553619 8.070152 2.616707 -89.003906 -18.320311 34.199223 2.000000 -2.000000 0.000000 -45.820309 -9.404297 -45.333626 -91.332336 7.196397 -11.917407 32.526749 36.937981 6.068536 -2.000000 2.000000 0.000000 69.521484 21.826170 -36.201176 134.757111 25.634983 -17.604387 5.150474 -43.240246 -115.877441 -52.207573 -3.506535 11.177459 48.639656 -4.102448 -4.171028 -22.066563 6.769744 4.854088 -65.617859 -15.506850 1.825833 63.336910 2.333964 4.831095 3.530858 -12.942212 1.858291 
-4.762339 48.361492 76.614258 25.234377 15.498048 -17.233717 30.686937 -1.354748 -14.704111 -29.248049 9.550781 0.498047 51.553619 8.070152 2.616707 -81.181641 -18.056639 23.281252 2.000000 -2.000000 0.000000 -42.421875 -9.726563 -48.468445 -91.332336 7.196397 -11.917407 31.424068 37.587074 3.598664 -2.000000 2.000000 0.000000 67.207031 20.361328 -35.914570 132.387405 26.438129 -16.817137 5.345111 -43.143902 -115.911018 -47.449261 -3.574183 10.094431 43.887096 -4.596172 -3.883836 -20.351603 6.689887 4.764480 -60.040840 -16.052748 -0.133432 58.965530 2.714572 4.584664 3.493978 -12.660335 1.538188 
-5.228886 49.318359 77.926620 23.808596 14.365235 -17.634296 29.261032 -1.845854 -14.211680 -29.248049 9.550781 0.498047 51.553619 8.070152 2.616707 -71.914063 -16.425779 8.720703 2.000000 -2.000000 0.000000 -39.628906 -11.269531 -48.885792 -90.618446 7.023957 -11.849605 31.204573 38.225254 1.035761 -2.000000 2.000000 0.000000 64.716797 18.603518 -35.234379 129.845291 26.801409 -15.449883 5.242929 -43.211563 -115.749481 -41.776691 -3.632368 9.113634 38.964310 -4.927292 -3.947871 -18.559406 6.653635 4.307953 -54.095364 -16.384766 -2.087846 54.558067 2.939331 4.408996 3.674175 -11.996118 1.426672 
-5.764296 50.219864 79.411499 22.392576 13.193360 -17.988281 27.841019 -2.259860 -13.846318 -29.248049 9.550781 0.498047 51.553619 8.070152 2.616707 -62.753906 -13.330077 -6.416016 2.000000 -2.000000 0.000000 -36.220703 -13.662109 -47.971054 -89.023170 6.701603 -12.212456 31.405890 39.228432 -1.116782 -2.000000 2.000000 0.000000 62.285156 16.503906 -35.124176 127.220604 27.622145 -14.449678 5.280389 -43.162991 -115.630676 -35.757275 -3.212721 8.675486 33.336720 -5.288146 -3.764685 -16.690464 6.207735 4.410211 -47.761608 -16.532488 -4.197310 50.002525 3.310244 4.278751 4.393355 -11.085526 1.465350 
-6.334095 51.018578 80.981750 20.458984 11.542970 -18.396482 26.404707 -2.764100 -13.349420 -29.248049 9.550781 0.498047 51.553619 8.070152 2.616707 -55.312504 -9.746094 -18.955082 2.000000 -2.000000 0.000000 -33.750004 -17.431643 -46.367191 -87.236862 6.203248 -12.389127 31.381479 40.390755 -4.466287 -2.000000 2.000000 0.000000 60.195313 14.931643 -34.365234 124.907272 28.158592 -13.257221 5.013305 -43.161221 -115.675377 -29.322008 -2.509558 6.986875 27.665173 -5.687881 -2.901748 -14.820836 5.520794 4.067953 -40.894238 -16.101606 -6.760406 45.099068 3.847215 4.008214 5.009689 -10.530473 1.448653 
-6.887154 51.667030 82.549095 18.154299 9.023438 -18.484795 24.990257 -3.097605 -13.121234 -29.248049 9.550781 0.498047 51.553619 8.070152 2.616707 -48.427738 -6.269531 -29.052736 2.000000 -2.000000 0.000000 -31.611328 -21.357424 -44.925434 -85.824738 5.700319 -12.654787 29.692144 41.971176 -7.915378 -2.000000 2.000000 0.000000 58.720699 13.818359 -33.203121 122.550423 28.659737 -12.158133 5.012111 -43.258869 -115.753510 -21.945242 -1.601902 6.727398 22.195086 -5.627503 -2.665266 -13.121360 4.773734 4.094129 -33.040867 -15.093822 -9.332446 39.998989 4.208896 3.456131 5.979013 -10.111406 1.401971 
-7.409407 52.181049 83.954887 15.546875 6.416015 -18.593748 23.924974 -3.510992 -13.128385 -29.248049 9.550781 0.498047 51.553619 8.070152 2.616707 -41.972656 -2.724609 -37.900391 2.000000 -2.000000 0.000000 -30.117186 -25.722656 -42.484711 -84.584030 5.720333 -12.646067 24.834929 44.407074 -12.182721 -2.000000 2.000000 0.000000 57.275387 13.554688 -32.255856 120.180511 28.992674 -10.847236 4.986979 -43.053619 -116.037918 -14.731220 -0.098057 6.002825 16.910782 -5.647324 -2.090791 -11.402485 3.955285 3.543300 -25.287329 -13.872415 -11.449413 34.896984 4.540305 2.688072 7.166753 -9.286049 1.673881 
-7.895196 52.544819 85.131599 13.037110 3.935547 -18.944437 23.234425 -3.663461 -13.195350 -29.248049 9.550781 0.498047 51.553619 8.070152 2.616707 -36.923824 0.839844 -44.521339 2.000000 -2.000000 0.000000 -29.404299 -31.132813 -39.609375 -84.023842 5.496994 -12.244351 17.361256 47.645329 -18.471212 -2.000000 2.000000 0.000000 56.513672 14.414063 -31.005863 118.003487 29.285088 -9.899151 4.856509 -43.179741 -115.620621 -8.367236 1.181454 5.608882 12.155281 -5.792871 -1.577214 -9.942638 3.343370 3.178061 -18.393913 -12.173087 -13.670043 30.321074 4.819282 2.939390 7.886595 -8.485707 1.267959 
-8.348905 52.758331 86.047592 11.074218 2.402344 -19.384766 22.722219 -3.802523 -13.638436 -29.248049 9.550781 0.498047 51.553619 8.070152 2.616707 -33.515625 3.242188 -48.378902 2.000000 -2.000000 0.000000 -28.437500 -35.888672 -36.626820 -83.680283 5.485728 -12.458752 9.491919 49.950092 -25.658213 -2.000000 2.000000 0.000000 56.220703 15.527344 -29.196608 115.601006 29.619017 -8.459807 5.106612 -43.064167 -115.938049 -3.278386 2.077867 5.433015 8.434916 -6.250987 -1.223197 -8.656210 3.449868 3.368332 -12.656042 -10.800499 -14.507455 26.265768 5.106930 2.105627 8.001678 -8.106944 1.085298 
-8.763817 52.853218 86.668808 9.667969 1.542969 -20.126604 22.221764 -3.961012 -14.057906 -29.248049 9.550781 0.498047 51.553619 8.070152 2.616707 -31.962891 4.394531 -49.960941 2.000000 -2.000000 0.000000 -27.392578 -40.087894 -34.088322 -84.384232 5.469278 -12.214499 1.223481 51.823551 -36.040115 -2.000000 2.000000 0.000000 56.103519 17.099609 -27.379938 113.633698 30.089293 -7.750286 4.747365 -43.061863 -115.641945 0.525915 2.552282 5.784322 5.464271 -6.276318 -0.871206 -7.616423 3.033190 2.779817 -8.747073 -9.993755 -15.380742 23.256756 4.993230 2.380332 7.279587 -7.706146 0.641085 
-9.094980 52.940208 87.117401 8.085938 1.025391 -20.947264 21.723442 -4.278155 -14.555843 -29.248049 9.550781 0.498047 51.553619 8.070152 2.616707 -31.044924 4.638672 -50.117188 2.000000 -2.000000 0.000000 -26.435545 -43.349606 -30.797720 -85.460655 5.737205 -12.325442 -7.064255 52.894485 -47.829750 -2.000000 2.000000 0.000000 56.093750 18.828123 -25.624996 111.812790 30.229986 -6.740572 4.911059 -43.238682 -115.923996 4.128765 2.713693 6.657856 2.467348 -6.305031 -0.515491 -6.370382 3.314791 2.486402 -5.768931 -9.464141 -15.288045 21.160246 5.253285 2.062773 7.636846 -7.695176 -0.402351 
-9.432041 53.003471 87.508652 6.855469 0.683594 -22.080078 21.409008 -4.337593 -15.133736 -29.248049 9.550781 0.498047 51.553619 8.070152 2.616707 -30.410156 4.072266 -49.541019 2.000000 -2.000000 0.000000 -25.488281 -46.406250 -27.675783 -87.051300 5.883996 -12.323418 -13.985281 52.572384 -56.345387 -2.000000 2.000000 0.000000 55.986328 19.814453 -23.544922 110.562592 30.256632 -5.981402 4.982217 -43.444225 -115.823097 7.258949 2.478874 7.720946 -0.168040 -5.930832 -0.219332 -4.839089 3.181124 2.137603 -3.787772 -9.229601 -14.730386 19.915010 5.291026 2.117718 7.793134 -7.923560 -0.929861 
-9.692463 53.082558 87.814156 5.449219 0.507813 -23.154179 21.074240 -4.400883 -15.702271 -29.248049 9.550781 0.498047 51.553619 8.070152 2.616707 -30.126953 3.359375 -48.544922 2.000000 -2.000000 0.000000 -24.023438 -48.818359 -24.636259 -88.654404 6.195534 -12.165004 -18.326183 51.696407 -60.365929 -2.000000 2.000000 0.000000 55.644535 20.751951 -21.529745 109.141457 30.429142 -5.214051 4.761547 -43.423294 -115.654007 10.159357 1.963063 8.563152 -2.617565 -5.950894 0.079525 -3.653535 3.655836 1.733464 -2.031203 -9.100044 -13.604485 19.402531 5.318307 2.057854 7.953860 -7.946895 -1.455321 
-9.821881 53.114189 87.956528 4.394532 0.341797 -24.413984 20.754915 -4.548232 -16.125914 -29.248049 9.550781 0.498047 51.553619 8.070152 2.616707 -29.853521 2.675781 -47.392582 2.000000 -2.000000 0.000000 -23.437500 -51.562500 -20.781248 -90.610161 6.683680 -11.811958 -21.126343 51.026409 -62.305717 -2.000000 2.000000 0.000000 55.097656 21.289063 -19.693716 107.938301 30.342134 -4.529516 4.876091 -43.082207 -115.736984 11.628309 1.563113 9.023996 -2.955626 -5.956011 0.080269 -3.017239 4.284811 1.650159 -0.937722 -9.070512 -12.634114 19.245560 5.319026 1.879153 8.370893 -8.218260 -2.135718 
-9.914636 53.114189 88.171524 3.339844 0.166016 -25.302704 20.578794 -4.546445 -16.474451 -29.248049 9.550781 0.498047 51.553619 8.070152 2.616707 -29.365236 2.304688 -46.962894 2.000000 -2.000000 0.000000 -22.714844 -54.033203 -16.582031 -92.225929 7.174357 -11.780634 -23.408310 50.242977 -63.217636 -2.000000 2.000000 0.000000 54.609371 21.650393 -18.330076 107.519562 30.566267 -4.516950 4.836698 -43.296806 -115.514015 13.456024 0.781388 9.442292 -5.230116 -5.792539 0.528807 -2.621901 4.831375 1.444587 -0.195957 -9.402575 -11.633554 19.415424 5.307767 2.057969 8.375509 -8.326284 -2.523837 
